# Blender v2.93.0 OBJ File: ''
# www.blender.org
mtllib Test.mtl
o Cube_Cube.001
v 3.429517 -2.123605 1.000000
v 3.429517 1.000000 1.000000
v 5.429517 -2.123605 1.000000
v 5.429517 1.000000 1.000000
v 3.429517 -2.123605 0.887759
v 3.578427 -2.123605 0.738850
v 3.440852 -2.123605 0.830774
v 3.473131 -2.123605 0.782464
v 3.521441 -2.123605 0.750185
v 3.578427 1.000000 0.738849
v 3.429517 1.000000 0.887759
v 3.521441 1.000000 0.750184
v 3.473131 1.000000 0.782464
v 3.440852 1.000000 0.830773
v 5.280607 -2.123605 0.738850
v 5.429517 -2.123605 0.887759
v 5.337593 -2.123605 0.750185
v 5.385902 -2.123605 0.782464
v 5.418182 -2.123605 0.830774
v 5.429517 1.000000 0.887759
v 5.280607 1.000000 0.738849
v 5.418182 1.000000 0.830773
v 5.385902 1.000000 0.782464
v 5.337593 1.000000 0.750184
vt 0.943418 0.000000
vt 0.943418 0.676772
vt 0.919217 0.676772
vt 0.919217 0.000000
vt 0.871957 0.000000
vt 0.871957 0.676772
vt 0.847755 0.676772
vt 0.847755 0.000000
vt 0.824941 0.676771
vt 0.824941 0.000000
vt 0.837288 0.000000
vt 0.837288 0.676771
vt 0.847755 0.000000
vt 0.847755 0.676771
vt 0.895587 0.676772
vt 0.895587 0.000000
vt 0.906689 0.000000
vt 0.906689 0.676772
vt 0.884485 0.000000
vt 0.884485 0.676772
vt 0.895587 0.000000
vt 0.895587 0.676772
vt 0.433327 0.676771
vt 0.433327 0.000000
vt 0.443794 0.000000
vt 0.443794 0.676771
vt 0.456141 0.000000
vt 0.456141 0.676771
vt 0.967737 0.000000
vt 0.980083 0.002456
vt 0.990550 0.009450
vt 0.997544 0.019917
vt 1.000000 0.032263
vt 1.000000 0.401064
vt 0.997544 0.413411
vt 0.990550 0.423877
vt 0.980083 0.430871
vt 0.967737 0.433327
vt 0.943418 0.433327
vt 0.999939 -0.009803
vt 0.999939 1.002210
vt -0.000208 1.002210
vt -0.000208 -0.009803
vt 1.002784 -0.015060
vt 0.007730 -0.015060
vt 0.007730 0.999437
vt 1.002784 0.999437
vn -1.0000 0.0000 0.0000
vn 1.0000 0.0000 0.0000
vn -0.1951 -0.0000 -0.9808
vn -0.5556 -0.0000 -0.8315
vn -0.8315 -0.0000 -0.5556
vn -0.9808 -0.0000 -0.1951
vn 0.9808 -0.0000 -0.1951
vn 0.8315 -0.0000 -0.5556
vn 0.5556 -0.0000 -0.8315
vn 0.1951 -0.0000 -0.9808
vn 0.0000 -1.0000 0.0000
vn 0.0000 -0.0000 -1.0000
g Cube_Cube.001_Material.003
usemtl Material.003
s 1
f 1/1/1 2/2/1 11/3/1 5/4/1
f 16/5/2 20/6/2 4/7/2 3/8/2
f 10/9/3 6/10/3 9/11/3 12/12/3
f 12/12/4 9/11/4 8/13/4 13/14/4
f 13/15/5 8/16/5 7/17/5 14/18/5
f 14/18/6 7/17/6 5/4/6 11/3/6
f 20/6/7 16/5/7 19/19/7 22/20/7
f 22/20/8 19/19/8 18/21/8 23/22/8
f 23/23/9 18/24/9 17/25/9 24/26/9
f 24/26/10 17/25/10 15/27/10 21/28/10
f 5/29/11 7/30/11 8/31/11 9/32/11 6/33/11 15/34/11 17/35/11 18/36/11 19/37/11 16/38/11 3/39/11 1/1/11
g Cube_Cube.001_Material.004
usemtl Material.004
f 6/40/12 10/41/12 21/42/12 15/43/12
f 3/44/12 1/45/12 2/46/12 4/47/12
